<svg width="32" height="32" viewBox="0 0 32 32" fill="none" xmlns="http://www.w3.org/2000/svg" >
<rect width="32" height="32" rx="8"  className="stroke-current fill-current"/>
<path d="M14.9394 12.8443C14.9394 12.7175 14.8806 12.5959 14.7759 12.5062C14.6713 12.4166 14.5293 12.3662 14.3812 12.3662H11.1993C11.0513 12.3662 10.9093 12.4166 10.8046 12.5062C10.6999 12.5959 10.6411 12.7175 10.6411 12.8443V15.5694C10.6411 15.6962 10.6999 15.8178 10.8046 15.9075C10.9093 15.9971 11.0513 16.0475 11.1993 16.0475H14.3812C14.5293 16.0475 14.6713 15.9971 14.7759 15.9075C14.8806 15.8178 14.9394 15.6962 14.9394 15.5694V12.8443ZM11.7576 13.3224H13.823V15.0913H11.7576V13.3224Z" fill="white"/>
<path d="M21.5825 12.8443C21.5825 12.7175 21.5237 12.5959 21.419 12.5062C21.3143 12.4166 21.1723 12.3662 21.0243 12.3662H17.8424C17.6944 12.3662 17.5524 12.4166 17.4477 12.5062C17.343 12.5959 17.2842 12.7175 17.2842 12.8443V15.5694C17.2842 15.6962 17.343 15.8178 17.4477 15.9075C17.5524 15.9971 17.6944 16.0475 17.8424 16.0475H21.0243C21.1723 16.0475 21.3143 15.9971 21.419 15.9075C21.5237 15.8178 21.5825 15.6962 21.5825 15.5694V12.8443ZM18.4006 13.3224H20.5219V15.0913H18.4006V13.3224Z" fill="white"/>
<path d="M14.9394 18.0079C14.9394 17.8811 14.8806 17.7595 14.7759 17.6698C14.6713 17.5802 14.5293 17.5298 14.3812 17.5298H11.1993C11.0513 17.5298 10.9093 17.5802 10.8046 17.6698C10.6999 17.7595 10.6411 17.8811 10.6411 18.0079V20.733C10.6411 20.8598 10.6999 20.9814 10.8046 21.071C10.9093 21.1607 11.0513 21.2111 11.1993 21.2111H14.3812C14.5293 21.2111 14.6713 21.1607 14.7759 21.071C14.8806 20.9814 14.9394 20.8598 14.9394 20.733V18.0079ZM11.7576 18.486H13.823V20.2549H11.7576V18.486Z" fill="white"/>
<path d="M21.5825 18.0079C21.5825 17.8811 21.5237 17.7595 21.419 17.6698C21.3143 17.5802 21.1723 17.5298 21.0243 17.5298H17.8424C17.6944 17.5298 17.5524 17.5802 17.4477 17.6698C17.343 17.7595 17.2842 17.8811 17.2842 18.0079V20.733C17.2842 20.8598 17.343 20.9814 17.4477 21.071C17.5524 21.1607 17.6944 21.2111 17.8424 21.2111H21.0243C21.1723 21.2111 21.3143 21.1607 21.419 21.071C21.5237 20.9814 21.5825 20.8598 21.5825 20.733V18.0079ZM18.4006 18.486H20.5219V20.2549H18.4006V18.486Z" fill="white"/>
<path d="M27.4418 27.0438H25.0991V11.0459C25.0935 10.6615 24.9124 10.2942 24.5945 10.0228C24.2766 9.75131 23.8472 9.59727 23.3983 9.59363H20.7449V8.20167C20.7449 7.41082 19.9751 6.77291 19.0516 6.77291H16.5024V4.47809C16.5024 4.35129 16.4436 4.22969 16.3389 4.14003C16.2342 4.05037 16.0922 4 15.9442 4C15.7961 4 15.6541 4.05037 15.5495 4.14003C15.4448 4.22969 15.386 4.35129 15.386 4.47809V6.77291H12.9483C12.0249 6.77291 11.2551 7.41082 11.2551 8.20167V9.59363H9.13383C8.21041 9.59363 7.45915 10.2551 7.45915 11.0459V27.0438H4.55823C4.41017 27.0438 4.26819 27.0942 4.1635 27.1839C4.05881 27.2735 4 27.3951 4 27.5219C4 27.6487 4.05881 27.7703 4.1635 27.86C4.26819 27.9496 4.41017 28 4.55823 28H27.4418C27.5898 28 27.7318 27.9496 27.8365 27.86C27.9412 27.7703 28 27.6487 28 27.5219C28 27.3951 27.9412 27.2735 27.8365 27.1839C27.7318 27.0942 27.5898 27.0438 27.4418 27.0438V27.0438ZM12.3715 8.20167C12.3715 7.93806 12.6405 7.72908 12.9483 7.72908H19.0516C19.3595 7.72908 19.6285 7.93806 19.6285 8.20167V9.59363H12.3715V8.20167ZM8.5756 11.0459C8.5756 10.7823 8.82602 10.5498 9.13383 10.5498H23.3983C23.5512 10.5531 23.6968 10.6064 23.8054 10.6986C23.914 10.7908 23.9774 10.915 23.9826 11.0459V27.0438H20.2983V24.1455C20.2953 23.7621 20.1165 23.395 19.8004 23.1233C19.4844 22.8517 19.0565 22.6972 18.6088 22.6932H13.6573C12.7339 22.6932 11.9808 23.3547 11.9808 24.1455V27.0438H8.5756V11.0459ZM19.1819 27.0438H13.0972V24.1455C13.097 24.0167 13.1554 23.8929 13.2599 23.8003C13.3645 23.7077 13.507 23.6536 13.6573 23.6494H18.6088C18.7604 23.6531 18.9046 23.7067 19.0114 23.7991C19.1181 23.8915 19.1792 24.0156 19.1819 24.1455V27.0438Z" fill="white"/>
</svg>
