<svg width="24" height="24" viewBox="0 0 24 24" fill="none" xmlns="http://www.w3.org/2000/svg">
<g opacity="0.7">
<path d="M16.4994 6.28544H15.4286V5.71401C15.4286 5.56245 15.3684 5.41711 15.2612 5.30995C15.154 5.20278 15.0087 5.14258 14.8572 5.14258C14.7056 5.14258 14.5603 5.20278 14.4531 5.30995C14.3459 5.41711 14.2857 5.56245 14.2857 5.71401V6.28544H12.5714V5.71401C12.5714 5.56245 12.5112 5.41711 12.4041 5.30995C12.2969 5.20278 12.1516 5.14258 12 5.14258C11.8485 5.14258 11.7031 5.20278 11.5959 5.30995C11.4888 5.41711 11.4286 5.56245 11.4286 5.71401V6.28544H9.71429V5.71401C9.71429 5.56245 9.65409 5.41711 9.54693 5.30995C9.43976 5.20278 9.29442 5.14258 9.14287 5.14258C8.99131 5.14258 8.84597 5.20278 8.7388 5.30995C8.63164 5.41711 8.57144 5.56245 8.57144 5.71401V6.28544H7.50058C7.02707 6.28589 6.57307 6.47415 6.23819 6.80892C5.90331 7.1437 5.7149 7.59764 5.71429 8.07115V15.9283C5.7149 16.4018 5.90331 16.8557 6.23819 17.1905C6.57307 17.5253 7.02707 17.7136 7.50058 17.714H13.7143C13.8658 17.714 14.0112 17.6537 14.1183 17.5466L18.1183 13.5466C18.2255 13.4394 18.2857 13.2941 18.2857 13.1426V8.07115C18.2851 7.59764 18.0967 7.1437 17.7618 6.80892C17.4269 6.47415 16.973 6.28589 16.4994 6.28544ZM7.50058 7.42829H8.57144V7.99972C8.57144 8.15127 8.63164 8.29662 8.7388 8.40378C8.84597 8.51095 8.99131 8.57115 9.14287 8.57115C9.29442 8.57115 9.43976 8.51095 9.54693 8.40378C9.65409 8.29662 9.71429 8.15127 9.71429 7.99972V7.42829H11.4286V7.99972C11.4286 8.15127 11.4888 8.29662 11.5959 8.40378C11.7031 8.51095 11.8485 8.57115 12 8.57115C12.1516 8.57115 12.2969 8.51095 12.4041 8.40378C12.5112 8.29662 12.5714 8.15127 12.5714 7.99972V7.42829H14.2857V7.99972C14.2857 8.15127 14.3459 8.29662 14.4531 8.40378C14.5603 8.51095 14.7056 8.57115 14.8572 8.57115C15.0087 8.57115 15.154 8.51095 15.2612 8.40378C15.3684 8.29662 15.4286 8.15127 15.4286 7.99972V7.42829H16.4994C16.6699 7.42844 16.8334 7.4962 16.954 7.61671C17.0747 7.73722 17.1426 7.90065 17.1429 8.07115V9.71401H6.85715V8.07115C6.85745 7.90065 6.92536 7.73722 7.04598 7.61671C7.16659 7.4962 7.33008 7.42844 7.50058 7.42829ZM6.85715 15.9283V10.8569H17.1429V12.5711H13.7143C13.5627 12.5711 13.4174 12.6314 13.3102 12.7385C13.2031 12.8457 13.1429 12.991 13.1429 13.1426V16.5711H7.50058C7.33008 16.571 7.16659 16.5032 7.04598 16.3827C6.92536 16.2622 6.85745 16.0988 6.85715 15.9283ZM16.3349 13.714L14.2857 15.7631V13.714H16.3349Z" fill="#202020"/>
<path d="M12 22.8574C9.85263 22.8574 7.75351 22.2206 5.96806 21.0276C4.18262 19.8346 2.79103 18.1389 1.96928 16.1551C1.14753 14.1712 0.932519 11.9882 1.35144 9.88209C1.77037 7.77601 2.80441 5.84145 4.32281 4.32305C5.84121 2.80466 7.77577 1.77061 9.88185 1.35169C11.9879 0.932763 14.1709 1.14777 16.1548 1.96952C18.1387 2.79127 19.8344 4.18286 21.0274 5.96831C22.2204 7.75376 22.8571 9.85287 22.8571 12.0002C22.8539 14.8787 21.709 17.6384 19.6736 19.6739C17.6382 21.7093 14.8785 22.8542 12 22.8574ZM12 2.28593C10.0787 2.28593 8.20051 2.85566 6.603 3.92308C5.0055 4.9905 3.76039 6.50766 3.02514 8.28272C2.28989 10.0578 2.09751 12.011 2.47234 13.8954C2.84717 15.7798 3.77237 17.5107 5.13093 18.8693C6.4895 20.2278 8.22042 21.153 10.1048 21.5278C11.9892 21.9027 13.9424 21.7103 15.7175 20.975C17.4925 20.2398 19.0097 18.9947 20.0771 17.3972C21.1445 15.7997 21.7143 13.9215 21.7143 12.0002C21.7114 9.42471 20.687 6.95551 18.8658 5.13435C17.0447 3.31319 14.5755 2.2888 12 2.28593Z" fill="#202020"/>
</g>
</svg>
