<svg xmlns="http://www.w3.org/2000/svg" x="0px" y="0px"
width="24" height="24"
viewBox="0 0 172 172"
style=" fill:#000000;"><g fill="none" fill-rule="nonzero" stroke="none" stroke-width="1" stroke-linecap="butt" stroke-linejoin="miter" stroke-miterlimit="10" stroke-dasharray="" stroke-dashoffset="0" font-family="none" font-weight="none" font-size="none" text-anchor="none" style="mix-blend-mode: normal"><path d="M0,172v-172h172v172z"></path><g fill="#ffffff"><path d="M86,0c-47.42183,0 -86,38.57817 -86,86c0,47.42183 38.57817,86 86,86c47.42183,0 86,-38.57817 86,-86c0,-47.42183 -38.57817,-86 -86,-86zM86,7.16667c43.46583,0 78.83333,35.3675 78.83333,78.83333c0,43.46583 -35.3675,78.83333 -78.83333,78.83333c-43.46583,0 -78.83333,-35.3675 -78.83333,-78.83333c0,-43.46583 35.3675,-78.83333 78.83333,-78.83333zM60.91667,57.33333c-0.91733,0 -1.83478,0.35105 -2.53353,1.0498c-1.3975,1.3975 -1.3975,3.66956 0,5.06706l22.54981,22.5498l-22.54981,22.5498c-1.3975,1.3975 -1.3975,3.66956 0,5.06706c0.69517,0.70233 1.6162,1.0498 2.53353,1.0498c0.91733,0 1.8312,-0.35464 2.53353,-1.0498l22.5498,-22.54981l22.5498,22.54981c0.70233,0.70233 1.6162,1.0498 2.53353,1.0498c0.91733,0 1.8312,-0.35464 2.53353,-1.0498c1.3975,-1.3975 1.3975,-3.66956 0,-5.06706l-22.54981,-22.5498l22.54981,-22.5498c1.40467,-1.40467 1.3975,-3.66239 0,-5.06706c-1.3975,-1.3975 -3.66956,-1.3975 -5.06706,0l-22.5498,22.54981l-22.5498,-22.54981c-0.69875,-0.69875 -1.6162,-1.0498 -2.53353,-1.0498z"></path></g></g></svg>