<svg width="24" height="24" viewBox="0 0 24 24" fill="none" xmlns="http://www.w3.org/2000/svg">
<g opacity="0.7">
<path d="M5.83317 21.2293C7.65856 22.449 9.80463 23.1 12 23.1C14.9439 23.1 17.7672 21.9305 19.8489 19.8489C21.9305 17.7672 23.1 14.9439 23.1 12C23.1 9.80463 22.449 7.65856 21.2293 5.83317C20.0096 4.00779 18.276 2.58507 16.2478 1.74494C14.2195 0.904809 11.9877 0.684992 9.8345 1.11329C7.68131 1.54158 5.70348 2.59876 4.15112 4.15112C2.59876 5.70348 1.54158 7.68131 1.11329 9.8345C0.684992 11.9877 0.904809 14.2195 1.74494 16.2478C2.58507 18.276 4.00779 20.0096 5.83317 21.2293ZM6.33856 3.52706C8.01435 2.40733 9.98455 1.80968 12 1.80968C14.7026 1.80968 17.2946 2.8833 19.2056 4.79436C21.1167 6.70541 22.1903 9.29736 22.1903 12C22.1903 14.0155 21.5927 15.9857 20.4729 17.6614C19.3532 19.3372 17.7617 20.6433 15.8997 21.4146C14.0376 22.1859 11.9887 22.3877 10.012 21.9945C8.03524 21.6013 6.2195 20.6308 4.79436 19.2056C3.36922 17.7805 2.39868 15.9648 2.00549 13.988C1.61229 12.0113 1.81409 9.96237 2.58537 8.10034C3.35666 6.2383 4.66277 4.64679 6.33856 3.52706ZM7.60741 18.574C8.90762 19.4427 10.4363 19.9065 12 19.9065C14.0969 19.9065 16.108 19.0735 17.5907 17.5907C19.0735 16.108 19.9065 14.0969 19.9065 12C19.9065 10.4363 19.4427 8.90762 18.574 7.60741C17.7052 6.30721 16.4704 5.29382 15.0257 4.6954C13.581 4.09697 11.9912 3.9404 10.4575 4.24547C8.92383 4.55055 7.51504 5.30356 6.4093 6.4093C5.30356 7.51504 4.55055 8.92383 4.24547 10.4575C3.9404 11.9912 4.09697 13.581 4.6954 15.0257C5.29382 16.4704 6.30721 17.7052 7.60741 18.574ZM8.1128 6.1824C9.26342 5.41358 10.6162 5.00323 12 5.00323C13.8557 5.00323 15.6353 5.74039 16.9475 7.05254C18.2596 8.36469 18.9968 10.1443 18.9968 12C18.9968 13.3838 18.5864 14.7366 17.8176 15.8872C17.0488 17.0378 15.956 17.9346 14.6776 18.4642C13.3991 18.9937 11.9922 19.1323 10.635 18.8623C9.27776 18.5924 8.03105 17.926 7.05254 16.9475C6.07402 15.969 5.40764 14.7222 5.13767 13.365C4.8677 12.0078 5.00626 10.6009 5.53583 9.32245C6.0654 8.04396 6.96219 6.95121 8.1128 6.1824ZM11.6784 15.5152C11.7637 15.6005 11.8794 15.6484 12 15.6484C12.1206 15.6484 12.2363 15.6005 12.3216 15.5152C12.4069 15.4299 12.4548 15.3142 12.4548 15.1936C12.4548 14.4672 12.7434 13.7706 13.257 13.257C13.7706 12.7434 14.4672 12.4548 15.1936 12.4548C15.3142 12.4548 15.4299 12.4069 15.5152 12.3216C15.6005 12.2363 15.6484 12.1206 15.6484 12C15.6484 11.8794 15.6005 11.7637 15.5152 11.6784C15.4299 11.5931 15.3142 11.5452 15.1936 11.5452C14.4672 11.5452 13.7706 11.2566 13.257 10.743C12.7434 10.2294 12.4548 9.5328 12.4548 8.80645C12.4548 8.68582 12.4069 8.57013 12.3216 8.48483C12.2363 8.39954 12.1206 8.35162 12 8.35162C11.8794 8.35162 11.7637 8.39954 11.6784 8.48483C11.5931 8.57013 11.5452 8.68582 11.5452 8.80645C11.5452 9.5328 11.2566 10.2294 10.743 10.743C10.2294 11.2566 9.5328 11.5452 8.80645 11.5452C8.68582 11.5452 8.57013 11.5931 8.48483 11.6784C8.39954 11.7637 8.35162 11.8794 8.35162 12C8.35162 12.1206 8.39954 12.2363 8.48483 12.3216C8.57013 12.4069 8.68582 12.4548 8.80645 12.4548C9.5328 12.4548 10.2294 12.7434 10.743 13.257C11.2566 13.7706 11.5452 14.4672 11.5452 15.1936C11.5452 15.3142 11.5931 15.4299 11.6784 15.5152ZM13.4291 12C12.8277 12.3323 12.3323 12.8277 12 13.4291C11.6678 12.8277 11.1723 12.3323 10.5709 12C11.1723 11.6677 11.6677 11.1723 12 10.5709C12.3323 11.1723 12.8277 11.6677 13.4291 12Z" fill="#202020" stroke="#202020" stroke-width="0.2"/>
</g>
</svg>
