<svg width="32" height="32" fill="none" xmlns="http://www.w3.org/2000/svg" className="stroke-current fill-current">
  <rect width="32" height="32" rx="8" />
  <path d="m25.785 11.7-9.231-7.5A.878.878 0 0 0 16 4c-.2 0-.394.07-.554.2l-9.23 7.5-1.847 1.5a.978.978 0 0 0-.24.29 1.056 1.056 0 0 0-.1.758c.03.127.083.247.156.352a.952.952 0 0 0 .268.26.855.855 0 0 0 .7.108.895.895 0 0 0 .324-.168l.37-.3V25c0 .796.29 1.559.81 2.121.52.563 1.224.879 1.958.879h14.77c.734 0 1.438-.316 1.958-.879.52-.562.81-1.325.81-2.121V14.5l.37.3a.87.87 0 0 0 .684.19.913.913 0 0 0 .608-.39c.147-.212.21-.479.176-.742a1.019 1.019 0 0 0-.36-.658l-1.846-1.5ZM18.769 26h-5.538v-4c0-.53.194-1.04.54-1.414A1.777 1.777 0 0 1 15.078 20h1.846c.49 0 .96.21 1.306.586.346.375.54.884.54 1.414v4Zm5.539-1c0 .265-.098.52-.27.707a.888.888 0 0 1-.653.293h-2.77v-4c0-1.06-.389-2.078-1.081-2.828S17.902 18 16.924 18h-1.847c-.98 0-1.918.421-2.61 1.172A4.175 4.175 0 0 0 11.384 22v4h-2.77a.888.888 0 0 1-.652-.293 1.044 1.044 0 0 1-.27-.707V13L16 6.25 24.308 13v12Z" fill="#fff"/>
</svg>
