<svg  xmlns="http://www.w3.org/2000/svg" className="stroke-current fill-current">
 
    <path d="M10.39 8.838a1.828 1.828 0 0 0 0 .193v.772c0 .38.099.752.285 1.07.187.316.452.565.763.713.077.936.332 1.842.747 2.656l.94 1.791c.181.346.44.633.75.832.31.199.661.303 1.018.303h2.536a1.883 1.883 0 0 0 1.01-.307 2.2 2.2 0 0 0 .745-.828l.953-1.79a7.12 7.12 0 0 0 .767-2.657c.31-.15.573-.4.758-.716.185-.317.284-.688.285-1.067V9.03c.002-.13-.01-.26-.035-.386.233-.184.423-.43.553-.715.13-.285.197-.602.194-.922.001-.456-.142-.897-.403-1.245a1.672 1.672 0 0 0-1.022-.655A6.37 6.37 0 0 0 19.81 2.65a5.426 5.426 0 0 0-2.264-1.455 1.843 1.843 0 0 0-.607-.867A1.526 1.526 0 0 0 16.003 0c-.334 0-.66.114-.935.327a1.843 1.843 0 0 0-.607.867 5.428 5.428 0 0 0-2.26 1.457 6.37 6.37 0 0 0-1.42 2.457 1.693 1.693 0 0 0-.963.586 2.076 2.076 0 0 0-.463 1.116 2.17 2.17 0 0 0 .22 1.206c.186.366.472.654.814.822Zm.685-2.216h9.864a.324.324 0 0 1 .14.038.364.364 0 0 1 .116.098.446.446 0 0 1 .087.304c0 .1-.036.196-.099.267a.318.318 0 0 1-.237.111H11.06a.324.324 0 0 1-.14-.038.364.364 0 0 1-.116-.098.45.45 0 0 1-.087-.304.406.406 0 0 1 .11-.253.322.322 0 0 1 .233-.102l.014-.023Zm9.507 3.188a.42.42 0 0 1-.093.27.336.336 0 0 1-.108.085.304.304 0 0 1-.128.032.649.649 0 0 0-.484.226.825.825 0 0 0-.201.546 5.385 5.385 0 0 1-.624 2.501l-.939 1.791a.734.734 0 0 1-.244.274.628.628 0 0 1-.332.105h-2.536a.627.627 0 0 1-.334-.1.73.73 0 0 1-.249-.271l-.946-1.799a5.383 5.383 0 0 1-.603-2.494.824.824 0 0 0-.2-.546.649.649 0 0 0-.485-.226.326.326 0 0 1-.238-.116.412.412 0 0 1-.098-.27v-.811h8.822a.079.079 0 0 1 0 .04l.02.763Zm-6.224-6.948v.3c0 .206.072.402.201.547a.649.649 0 0 0 .485.226.649.649 0 0 0 .484-.226.824.824 0 0 0 .201-.546V1.889c0-.084.03-.165.083-.224a.266.266 0 0 1 .401-.003.35.35 0 0 1 .085.227V3.2c0 .205.072.402.2.546a.649.649 0 0 0 .486.227.649.649 0 0 0 .484-.227.824.824 0 0 0 .201-.546v-.308c.892.445 1.619 1.226 2.056 2.208h-7.457c.443-.986 1.177-1.767 2.077-2.208l.013-.031ZM3.685 32h24.63a.649.649 0 0 0 .484-.226.824.824 0 0 0 .201-.546v-4.756c0-.41 0-1.544-8.685-8.03a.627.627 0 0 0-.87.108l-1.05 1.22-.623-.695a.651.651 0 0 0-.48-.231h-2.269a.62.62 0 0 0-.264.06.689.689 0 0 0-.223.171l-.685.773-1.179-1.298a.627.627 0 0 0-.857-.093C3 24.96 3 26.056 3 26.473v4.756c0 .205.072.401.2.546a.649.649 0 0 0 .485.226Zm10.968-1.544.932-5.598h1.124l.946 5.598h-3.002Zm.685-10.037h1.7l.44.494-.446.517h-1.694l-.452-.494.453-.517ZM4.371 26.596c.5-.842 4.277-3.93 7.76-6.525l2.412 2.664c.13.14.301.218.48.216h2.27a.62.62 0 0 0 .268-.063.691.691 0 0 0 .225-.176L18.8 21.53l.11-.078a.67.67 0 0 0 .089-.154l1.035-1.204c3.427 2.586 7.108 5.667 7.595 6.508v3.86h-8.582l-1.083-6.508a.796.796 0 0 0-.24-.458.639.639 0 0 0-.446-.175h-2.255a.639.639 0 0 0-.446.175.796.796 0 0 0-.24.458l-1.055 6.5H4.371v-3.86Z"/>
 
</svg>
