<svg width="32" height="32" viewBox="0 0 32 32" fill="none" xmlns="http://www.w3.org/2000/svg">
<rect width="32" height="32" rx="8" fill="#5E7497"/>
<path d="M27.0999 9.30851C27.0191 9.31859 26.939 9.33046 26.8504 9.33046C26.7925 9.33046 26.7417 9.31978 26.687 9.31563V27.627C26.687 28.2809 26.1034 28.8138 25.3843 28.8138H6.60523C5.88683 28.8138 5.30261 28.2809 5.30261 27.627V4.38515C5.30261 3.73065 5.88683 3.19838 6.60523 3.19838H21.272C20.8467 2.92898 20.6266 2.47503 20.6116 2.0116H6.60523C5.1691 2.0116 4 3.07614 4 4.38515V27.6264C4 28.9349 5.1691 30 6.60523 30H25.3843C26.8218 30 27.9896 28.9349 27.9896 27.6264V9.77135C27.6047 9.71082 27.3083 9.54111 27.0999 9.30851Z" fill="white"/>
<path d="M27.3376 10.3814C27.335 10.3814 27.3298 10.382 27.324 10.3814H20.6962C20.3296 10.3814 20.0332 10.1155 20.0332 9.78798V2.59373C20.0332 2.34332 20.2091 2.1202 20.4722 2.03535C20.734 1.9499 21.0291 2.02289 21.2075 2.21633L27.7675 9.33641C27.9108 9.44559 28 9.60759 28 9.78857C28.0007 10.1155 27.7043 10.3814 27.3376 10.3814ZM21.3593 9.19459H25.9191L21.3593 4.24572V9.19459Z" fill="white"/>
<path d="M22.0008 20.5308H9.98938C8.5526 20.5308 7.38416 19.4663 7.38416 18.1573V14.9678C7.38416 13.6588 8.5526 12.5942 9.98938 12.5942H22.0001C23.4369 12.5942 24.6054 13.6588 24.6054 14.9678V18.1573C24.606 19.4663 23.4376 20.5308 22.0008 20.5308ZM9.98938 13.781C9.27099 13.781 8.68677 14.3133 8.68677 14.9678V18.1573C8.68677 18.8118 9.27099 19.344 9.98938 19.344H22.0001C22.7185 19.344 23.3027 18.8118 23.3027 18.1573V14.9678C23.3027 14.3133 22.7185 13.781 22.0001 13.781H9.98938Z" fill="white"/>
<path d="M13.5475 16.5609C13.5475 16.8422 13.4947 17.1015 13.3879 17.3395C13.2817 17.5768 13.1313 17.7827 12.9385 17.956C12.7451 18.1299 12.5119 18.2652 12.2397 18.3625C11.9668 18.4598 11.6645 18.5079 11.3324 18.5079H9.67285V14.617H11.3324C11.6645 14.617 11.9668 14.6657 12.2397 14.7636C12.5119 14.8615 12.7451 14.9974 12.9385 15.17C13.1319 15.3427 13.2817 15.548 13.3879 15.7854C13.4947 16.0227 13.5475 16.2815 13.5475 16.5609ZM12.534 16.5609C12.534 16.3687 12.5067 16.1948 12.452 16.04C12.3973 15.8851 12.3185 15.7539 12.2162 15.6459C12.1139 15.5379 11.9876 15.4561 11.8397 15.3979C11.6906 15.3398 11.5226 15.3113 11.333 15.3113H10.67V17.8136H11.333C11.5226 17.8136 11.6912 17.7845 11.8397 17.727C11.9882 17.6688 12.1139 17.5863 12.2162 17.4783C12.3185 17.3709 12.3973 17.2398 12.452 17.0849C12.5067 16.9289 12.534 16.7544 12.534 16.5609Z" fill="white"/>
<path d="M18.3248 16.561C18.3248 16.8423 18.2714 17.1039 18.1653 17.3455C18.0591 17.5876 17.9086 17.7982 17.7159 17.9768C17.5231 18.1554 17.2892 18.2961 17.017 18.3975C16.7441 18.499 16.4419 18.55 16.1097 18.55C15.7769 18.55 15.4741 18.499 15.2005 18.3975C14.927 18.2961 14.6931 18.156 14.4984 17.9768C14.3043 17.7976 14.1539 17.5876 14.0477 17.3455C13.9409 17.1039 13.8875 16.8417 13.8875 16.561C13.8875 16.2791 13.9409 16.018 14.0477 15.7759C14.1539 15.5338 14.305 15.3238 14.4984 15.1452C14.6931 14.9671 14.927 14.8277 15.2005 14.7262C15.4741 14.6248 15.7769 14.5737 16.1097 14.5737C16.4419 14.5737 16.7441 14.6254 17.017 14.7274C17.2892 14.8301 17.5224 14.9701 17.7159 15.1481C17.9093 15.3261 18.0591 15.5362 18.1653 15.7783C18.2714 16.0204 18.3248 16.2815 18.3248 16.561ZM17.3114 16.561C17.3114 16.3687 17.284 16.1955 17.2293 16.0412C17.1746 15.8875 17.0958 15.7569 16.9936 15.6501C16.8913 15.5433 16.7649 15.462 16.6171 15.4045C16.4679 15.3475 16.2993 15.319 16.1104 15.319C15.9182 15.319 15.7476 15.3475 15.5984 15.4045C15.4493 15.462 15.3229 15.5433 15.2207 15.6501C15.1184 15.7575 15.0396 15.8875 14.9849 16.0412C14.9302 16.1955 14.9029 16.3687 14.9029 16.561C14.9029 16.7544 14.9302 16.9289 14.9849 17.0826C15.0396 17.2369 15.1184 17.3668 15.2207 17.4736C15.3229 17.581 15.4493 17.6617 15.5984 17.7181C15.7476 17.7745 15.9182 17.8024 16.1104 17.8024C16.2993 17.8024 16.4686 17.7745 16.6171 17.7181C16.7656 17.6617 16.8913 17.581 16.9936 17.4736C17.0958 17.3668 17.1746 17.2369 17.2293 17.0826C17.284 16.9289 17.3114 16.7544 17.3114 16.561Z" fill="white"/>
<path d="M21.7871 17.5009C21.8106 17.5009 21.834 17.5045 21.8568 17.5128C21.8803 17.5211 21.903 17.5347 21.9245 17.5543L22.3179 17.9305C22.1453 18.1358 21.9304 18.2895 21.6718 18.394C21.4133 18.4984 21.1065 18.5506 20.7528 18.5506C20.4285 18.5506 20.138 18.5002 19.8807 18.3993C19.6235 18.299 19.4059 18.1602 19.2275 17.9828C19.049 17.8059 18.9116 17.5959 18.8152 17.3526C18.7201 17.1093 18.6713 16.8458 18.6713 16.561C18.6713 16.2708 18.7234 16.0044 18.8269 15.7605C18.9298 15.5178 19.0757 15.3078 19.2633 15.1315C19.4509 14.9553 19.6756 14.8188 19.9374 14.7209C20.1992 14.623 20.4878 14.5737 20.8017 14.5737C20.9619 14.5737 21.1137 14.5862 21.2543 14.6123C21.3963 14.6384 21.5285 14.674 21.6516 14.7191C21.7741 14.7648 21.8874 14.8194 21.991 14.8835C22.0945 14.947 22.1864 15.017 22.2665 15.0918L21.9324 15.5C21.9109 15.5249 21.8855 15.5475 21.8562 15.5683C21.8268 15.5884 21.7865 15.5991 21.7337 15.5991C21.6985 15.5991 21.6653 15.5914 21.6341 15.5777C21.6028 15.5635 21.5696 15.5457 21.5344 15.5255C21.4992 15.5054 21.4615 15.4828 21.4185 15.4591C21.3768 15.4347 21.3266 15.4128 21.2693 15.3926C21.212 15.3718 21.1449 15.3546 21.0674 15.3404C20.9899 15.3261 20.8994 15.319 20.7958 15.319C20.6317 15.319 20.4819 15.3463 20.3464 15.4021C20.2103 15.4573 20.0931 15.538 19.9947 15.6436C19.8964 15.7492 19.8195 15.8792 19.7661 16.0329C19.7121 16.1872 19.6854 16.3634 19.6854 16.561C19.6854 16.7604 19.7153 16.9372 19.7746 17.0927C19.8345 17.2475 19.9159 17.3775 20.0182 17.4837C20.1204 17.5893 20.2403 17.6694 20.377 17.7252C20.5138 17.7804 20.661 17.8077 20.8173 17.8077C20.9072 17.8077 20.9893 17.8041 21.0635 17.7958C21.1371 17.7875 21.2068 17.7745 21.2713 17.7561C21.3358 17.7371 21.3957 17.7122 21.4523 17.6813C21.5097 17.6499 21.567 17.6101 21.6256 17.5626C21.649 17.5448 21.6744 17.53 21.7018 17.5181C21.7292 17.5069 21.7578 17.5009 21.7871 17.5009Z" fill="white"/>
</svg>
