<svg width="24" height="24" viewBox="0 0 24 24" fill="none" xmlns="http://www.w3.org/2000/svg">
<g opacity="0.7">
<path d="M20.3089 13.1698L20.3091 13.1686C20.3649 12.743 20.776 12.4409 21.2108 12.4964C21.6669 12.573 21.9632 12.9664 21.8884 13.4128L21.8884 13.4128L21.888 13.4157C21.5949 15.5413 20.6109 17.4798 19.0816 19.002C17.1337 20.9409 14.5996 21.9 12.0438 21.9C9.48795 21.9 6.95383 20.9409 5.00593 19.002C1.13136 15.1454 1.13136 8.84937 5.00593 4.9927C8.88076 1.13577 15.2068 1.13577 19.0816 4.9927L19.3143 5.22434L19.4849 5.3941V5.15346V3.80574C19.4849 3.35601 19.8416 3.00024 20.2946 3.00024C20.7475 3.00024 21.1043 3.35601 21.1043 3.80574V7.32245C21.1043 7.77218 20.7475 8.12795 20.2946 8.12795H16.7615C16.3086 8.12795 15.9518 7.77218 15.9518 7.32245C15.9518 6.87272 16.3086 6.51695 16.7615 6.51695H18.1155H18.3577L18.1861 6.34608L17.9533 6.11444C14.6986 2.87476 9.41006 2.87476 6.15535 6.11444C2.90038 9.35437 2.90038 14.6193 6.15535 17.8592C9.41006 21.0989 14.6986 21.0989 17.9533 17.8592C19.238 16.5805 20.052 14.9602 20.3089 13.1698Z" fill="#202020" stroke="#FBF9F9" stroke-width="0.2"/>
<path d="M11.1129 7.11204L11.1341 11.9975L11.2129 7.11183C11.213 6.65909 11.5517 6.30654 12.0015 6.30654C12.456 6.30654 12.8112 6.66384 12.8112 7.09099L12.8112 7.09197L12.8535 11.4089L12.8541 11.4726L12.9121 11.4989L15.5982 12.72C15.9964 12.9092 16.1798 13.3777 15.9943 13.7654L15.9943 13.7654L15.993 13.7683C15.8626 14.0651 15.5626 14.235 15.2595 14.235C15.1442 14.235 15.0333 14.216 14.9232 14.1612L14.9233 14.1612L14.9198 14.1596L11.7041 12.7066L11.7042 12.7065L11.7 12.7048C11.4222 12.5942 11.2341 12.3162 11.2341 11.9975L11.2341 11.9971L11.2129 7.11204H11.1129ZM11.1129 7.11204C11.1129 6.60665 11.4937 6.20654 12.0015 6.20654C12.5092 6.20654 12.9112 6.60665 12.9112 7.09099L11.1129 7.11204Z" fill="#202020" stroke="#FBF9F9" stroke-width="0.2"/>
</g>
</svg>
