<svg width="30" height="28" viewBox="0 0 30 28" fill="none" xmlns="http://www.w3.org/2000/svg" className="stroke-current fill-current">
<path d="M26.7867 4.14715C26.1057 3.46582 25.2971 2.92534 24.4071 2.55659C23.5172 2.18784 22.5633 1.99805 21.6 1.99805C20.6367 1.99805 19.6828 2.18784 18.7929 2.55659C17.9029 2.92534 17.0943 3.46582 16.4133 4.14715L15 5.56048L13.5867 4.14715C12.2111 2.77156 10.3454 1.99876 8.4 1.99876C6.45462 1.99876 4.58892 2.77156 3.21333 4.14715C1.83774 5.52274 1.06494 7.38844 1.06494 9.33381C1.06494 11.2792 1.83774 13.1449 3.21333 14.5205L4.62666 15.9338L15 26.3071L25.3733 15.9338L26.7867 14.5205C27.468 13.8395 28.0085 13.0309 28.3772 12.141C28.746 11.251 28.9358 10.2971 28.9358 9.33381C28.9358 8.3705 28.746 7.41662 28.3772 6.52667C28.0085 5.63673 27.468 4.82816 26.7867 4.14715Z" fill="#BA5A31" stroke="#BA5A31" stroke-width="2" stroke-linecap="round" stroke-linejoin="round"/>
</svg>
