<svg width="81" height="60" viewBox="0 0 81 60" fill="none" xmlns="http://www.w3.org/2000/svg">
<path d="M41.5554 0C36.1125 0 30.8682 1.81224 26.7898 5.10295C23.1498 8.0397 20.6598 11.9642 19.6737 16.2731C19.6017 16.2724 19.5305 16.2731 19.4592 16.2731C9.0056 16.2733 0.5 24.0582 0.5 33.6262C0.5 43.195 9.0056 50.9793 19.4592 50.9793H26.4175C27.3595 50.9793 28.1238 50.2805 28.1238 49.418C28.1238 48.5555 27.3596 47.8563 26.4175 47.8563H19.4592C10.8864 47.8563 3.912 41.4729 3.912 33.6261C3.912 25.7793 10.8863 19.3959 19.4592 19.3959C19.9159 19.3959 20.3986 19.4186 20.9354 19.4648C21.845 19.542 22.662 18.9505 22.7859 18.121C23.4003 13.9993 25.6234 10.2085 29.0462 7.44654C32.501 4.65894 36.9435 3.12377 41.555 3.12377C52.0134 3.12377 60.5222 10.9118 60.5222 20.4842C60.5222 20.8289 60.4521 21.7202 60.4521 21.7202C60.4166 22.1795 60.6044 22.6298 60.9657 22.9505C61.3265 23.2713 61.8232 23.4294 62.3247 23.3838C62.7784 23.3421 63.2361 23.3208 63.6851 23.3208C71.0753 23.3208 77.0875 28.8239 77.0875 35.5879C77.0875 42.352 71.0751 47.8549 63.6851 47.8549H56.0442C55.1022 47.8549 54.3382 48.5541 54.3382 49.4166C54.3382 50.2791 55.1022 50.978 56.0442 50.978H63.6851C72.9571 50.978 80.5003 44.0741 80.5003 35.588C80.5002 27.1776 73.0907 20.3211 63.9323 20.1995C63.7653 9.03593 53.7915 0.000223459 41.5555 0.000223459L41.5554 0ZM41.5554 7.33914C34.4214 7.33914 28.3146 12.2189 27.3506 18.6894C27.2233 19.5439 27.8771 20.3286 28.8103 20.4477C29.8053 20.5747 30.6146 19.8946 30.7313 19.1117C31.466 14.1808 36.1193 10.4626 41.5553 10.4626C42.4977 10.4626 43.2616 9.76339 43.2616 8.9009C43.2616 8.03826 42.4975 7.33919 41.5553 7.33919L41.5554 7.33914ZM41.2307 34.5232C40.5596 34.5232 39.8887 34.7418 39.3536 35.1795L33.1478 40.2543C32.445 40.829 32.3842 41.816 33.012 42.4593C33.6395 43.1021 34.7186 43.1579 35.4211 42.5832L39.5248 39.2278V58.4386C39.5248 59.3011 40.2886 60 41.231 60C42.173 60 42.9369 59.3011 42.9369 58.4386V39.2271L47.0409 42.5826C47.7437 43.1573 48.8224 43.1015 49.45 42.4585C50.0776 41.8153 50.0168 40.828 49.3139 40.2536L43.1079 35.1791C42.5729 34.7416 41.9017 34.5227 41.2307 34.5227L41.2307 34.5232Z" fill="#244D4D"/>
</svg>
