<svg width="32" height="32" viewBox="0 0 32 32" fill="none" xmlns="http://www.w3.org/2000/svg" className="stroke-current fill-current">
<rect width="32" height="32" rx="8" />
<path d="M25.0504 8.26827L7.111 26.2077L5.79225 24.8889L23.7316 6.94951L24.4144 6.26667H23.4488H19.0665V4.4H26.6665C26.9141 4.4 27.1515 4.49833 27.3265 4.67337C27.5015 4.8484 27.5999 5.0858 27.5999 5.33333V12.9333H25.7332V8.55111V7.58543L25.0504 8.26827Z" fill="white" stroke="#5E7497" stroke-width="0.8"/>
<path d="M11.3828 12.6213C10.6446 13.1145 9.7767 13.3778 8.88888 13.3778C7.69836 13.3778 6.55659 12.9049 5.71476 12.063C4.87293 11.2212 4.4 10.0794 4.4 8.88889C4.4 8.00107 4.66327 7.13319 5.15651 6.395C5.64976 5.6568 6.35083 5.08145 7.17106 4.7417C7.9913 4.40195 8.89386 4.31305 9.76462 4.48625C10.6354 4.65946 11.4352 5.08698 12.063 5.71477C12.6908 6.34255 13.1183 7.14239 13.2915 8.01315C13.4647 8.88391 13.3758 9.78648 13.0361 10.6067C12.6963 11.427 12.121 12.128 11.3828 12.6213ZM10.3457 6.70859C9.91449 6.42046 9.40751 6.26667 8.88888 6.26667C8.19343 6.26667 7.52646 6.54294 7.03469 7.0347C6.54293 7.52646 6.26666 8.19344 6.26666 8.88889C6.26666 9.40752 6.42045 9.9145 6.70859 10.3457C6.99672 10.7769 7.40626 11.113 7.8854 11.3115C8.36455 11.51 8.89179 11.5619 9.40045 11.4607C9.90912 11.3596 10.3764 11.1098 10.7431 10.7431C11.1098 10.3764 11.3595 9.90913 11.4607 9.40046C11.5619 8.8918 11.51 8.36456 11.3115 7.88541C11.113 7.40626 10.7769 6.99673 10.3457 6.70859Z" fill="white" stroke="#5E7497" stroke-width="0.8"/>
<path d="M20.6172 19.3787C21.3554 18.8854 22.2232 18.6222 23.1111 18.6222C24.3016 18.6222 25.4433 19.0951 26.2852 19.9369C27.127 20.7788 27.5999 21.9205 27.5999 23.1111C27.5999 23.9989 27.3367 24.8668 26.8434 25.605C26.3502 26.3431 25.6491 26.9185 24.8289 27.2583C24.0086 27.598 23.1061 27.6869 22.2353 27.5137C21.3646 27.3405 20.5647 26.913 19.9369 26.2852C19.3092 25.6574 18.8816 24.8576 18.7084 23.9868C18.5352 23.116 18.6241 22.2135 18.9639 21.3932C19.3036 20.573 19.879 19.8719 20.6172 19.3787ZM21.6542 25.2914C22.0854 25.5795 22.5924 25.7333 23.1111 25.7333C23.8065 25.7333 24.4735 25.457 24.9652 24.9653C25.457 24.4735 25.7333 23.8065 25.7333 23.1111C25.7333 22.5924 25.5795 22.0855 25.2913 21.6542C25.0032 21.223 24.5937 20.8869 24.1145 20.6884C23.6354 20.49 23.1081 20.438 22.5995 20.5392C22.0908 20.6404 21.6236 20.8901 21.2569 21.2569C20.8901 21.6236 20.6404 22.0908 20.5392 22.5995C20.438 23.1082 20.49 23.6354 20.6884 24.1145C20.8869 24.5937 21.223 25.0032 21.6542 25.2914Z" fill="white" stroke="#5E7497" stroke-width="0.8"/>
</svg>
