<svg width="40" height="40" viewBox="0 0 40 40" fill="none" xmlns="http://www.w3.org/2000/svg">
<path fill-rule="evenodd" clip-rule="evenodd" d="M27.9364 6.56557C27.4376 8.49077 25.4708 9.64757 23.5452 9.14837C21.62 8.64917 20.4632 6.68317 20.9616 4.75637C21.4616 2.83157 23.4272 1.67437 25.3532 2.17357C27.2788 2.67277 28.436 4.63997 27.9364 6.56557Z" fill="#202020"/>
<path fill-rule="evenodd" clip-rule="evenodd" d="M18.3632 36.6088C18.1032 37.61 17.0812 38.2108 16.0796 37.952C15.078 37.692 14.4768 36.6704 14.7364 35.668C14.996 34.666 16.018 34.066 17.0196 34.3252C18.0212 34.584 18.6224 35.6068 18.3632 36.6088Z" fill="#202020"/>
<path fill-rule="evenodd" clip-rule="evenodd" d="M5.94721 14.2987C7.41161 14.6787 8.29041 16.1739 7.91121 17.6371C7.53201 19.1011 6.03761 19.9795 4.57361 19.6003C3.11001 19.2211 2.23081 17.7267 2.61041 16.2627C2.98961 14.7999 4.48401 13.9207 5.94721 14.2987Z" fill="#202020"/>
<path fill-rule="evenodd" clip-rule="evenodd" d="M35.9908 23.8732C36.5304 24.0128 36.8544 24.5628 36.714 25.1032C36.5744 25.6424 36.024 25.9656 35.4848 25.8256C34.9456 25.686 34.622 25.1352 34.7616 24.5956C34.902 24.0564 35.452 23.7336 35.9908 23.8732Z" fill="#202020"/>
<path fill-rule="evenodd" clip-rule="evenodd" d="M19.4944 4.84437C19.9836 6.60757 18.9484 8.43437 17.1852 8.92237C15.4212 9.40997 13.5952 8.37597 13.1068 6.61117C12.6188 4.84717 13.6532 3.02197 15.4172 2.53397C17.1804 2.04557 19.0072 3.07957 19.4944 4.84437Z" fill="#202020"/>
<path fill-rule="evenodd" clip-rule="evenodd" d="M26.226 35.6488C26.4592 36.4924 25.9648 37.3656 25.1212 37.5996C24.2772 37.8328 23.404 37.3388 23.1704 36.4944C22.9372 35.6508 23.4316 34.7776 24.2752 34.5444C25.1192 34.3108 25.9924 34.8048 26.226 35.6488Z" fill="#202020"/>
<path fill-rule="evenodd" clip-rule="evenodd" d="M4.6744 22.7375C5.978 22.3759 7.3276 23.1415 7.6884 24.4455C8.0492 25.7495 7.2844 27.0987 5.9808 27.4591C4.6764 27.8207 3.3272 27.0559 2.9664 25.7523C2.606 24.4471 3.37 23.0979 4.6744 22.7375Z" fill="#202020"/>
<path fill-rule="evenodd" clip-rule="evenodd" d="M11.3996 7.70315C12.5908 8.87435 12.6064 10.7915 11.4344 11.9824C10.2628 13.174 8.34681 13.1892 7.15481 12.0172C5.96361 10.8459 5.94801 8.92875 7.12041 7.73795C8.29241 6.54595 10.208 6.52995 11.3996 7.70315Z" fill="#202020"/>
<path fill-rule="evenodd" clip-rule="evenodd" d="M32.6312 31.0151C33.1416 31.5171 33.1484 32.3387 32.646 32.8483C32.1436 33.3591 31.3224 33.3663 30.812 32.8643C30.3012 32.3615 30.2948 31.5399 30.7972 31.0299C31.2996 30.5195 32.1204 30.5131 32.6312 31.0151Z" fill="#202020"/>
<path fill-rule="evenodd" clip-rule="evenodd" d="M7.91881 30.606C8.75601 29.7551 10.1248 29.7436 10.9752 30.5812C11.826 31.4188 11.8376 32.7864 11.0004 33.6384C10.1636 34.4892 8.79481 34.5008 7.94401 33.6624C7.09281 32.8256 7.08161 31.4568 7.91881 30.606Z" fill="#202020"/>
</svg>
