<svg width="24" height="24" viewBox="0 0 24 24" fill="none" xmlns="http://www.w3.org/2000/svg">
<g opacity="0.7">
<path d="M12 0C7.03714 0 3 3.768 3 8.4C3 16.038 9.91071 22.596 11.2993 23.832L11.4857 24H12.5143L12.7007 23.832C14.0893 22.596 21 16.038 21 8.4C21 3.768 16.9629 0 12 0ZM12 22.794C10.6243 21.528 4.28571 15.3 4.28571 8.4C4.28571 4.428 7.74429 1.2 12 1.2C16.2557 1.2 19.7143 4.428 19.7143 8.4C19.7143 15.3 13.3757 21.528 12 22.794Z" fill="#202020"/>
<path d="M12 4.7998C9.87211 4.7998 8.14282 6.4138 8.14282 8.3998C8.14282 10.3858 9.87211 11.9998 12 11.9998C14.1278 11.9998 15.8571 10.3858 15.8571 8.3998C15.8571 6.4138 14.1278 4.7998 12 4.7998ZM12 10.7998C10.5793 10.7998 9.42854 9.7258 9.42854 8.3998C9.42854 7.0738 10.5793 5.9998 12 5.9998C13.4207 5.9998 14.5714 7.0738 14.5714 8.3998C14.5714 9.7258 13.4207 10.7998 12 10.7998Z" fill="#202020"/>
</g>
</svg>
