<svg fill="none" xmlns="http://www.w3.org/2000/svg" className="stroke-current fill-current">
  
    <path 
    d="M30.868 5.484 22.264 2.23a3.593 3.593 0 0 0-2.528 0l-8.652 3.269h-.168l-8.448-3.19a1.897 1.897 0 0 0-1.678.172 1.738 1.738 0 0 0-.58.61c-.138.246-.21.52-.21.798v21.05c-.001.34.106.673.308.954.202.281.49.498.824.623l8.604 3.254a3.58 3.58 0 0 0 2.528 0L21 26.463l8.532 3.227a1.9 1.9 0 0 0 1.676-.173c.243-.156.442-.366.58-.61A1.63 1.63 0 0 0 32 28.11V7.064a1.62 1.62 0 0 0-.307-.956 1.77 1.77 0 0 0-.825-.624ZM2 24.808V4.165l8 3.023v20.643l-8-3.023Zm10 3.023V7.188l8-3.023v20.643l-8 3.023Zm18 0-8-3.023V4.165l8 3.023v20.643Z"/>
  
  
</svg>
