<svg width="24" height="24" viewBox="0 0 24 24" fill="none" xmlns="http://www.w3.org/2000/svg">
<g opacity="0.7" clip-path="url(#clip0_365_2055)">
<path d="M12.8399 11.1842H12.8159V7.99223H12.8399C13.4879 7.99223 14.0879 8.37623 14.3279 9.00023C14.4959 9.40823 14.9759 9.60023 15.3839 9.43223C15.7919 9.26423 15.9839 8.78423 15.8159 8.37623C15.3119 7.15223 14.1359 6.38423 12.8159 6.38423H12.7919V4.84823C12.7919 4.39223 12.4319 4.03223 11.9759 4.03223C11.5199 4.03223 11.1599 4.39223 11.1599 4.84823V6.38423H11.1359C10.2719 6.38423 9.45594 6.72023 8.85594 7.32023C8.23194 7.92023 7.89594 8.73623 7.89594 9.60023C7.89594 11.3762 9.33593 12.8162 11.1119 12.8162H11.1359V16.0082H11.1119C10.4639 16.0082 9.86393 15.6242 9.62393 15.0002C9.45593 14.5922 8.97594 14.4002 8.56793 14.5682C8.15993 14.7362 7.96794 15.2162 8.13594 15.6242C8.63994 16.8482 9.81594 17.6162 11.1359 17.6162H11.1599V19.1522C11.1599 19.6082 11.5199 19.9682 11.9759 19.9682C12.4319 19.9682 12.7919 19.6082 12.7919 19.1522V17.6162H12.8159C14.5919 17.6162 16.0319 16.1762 16.0319 14.4002C16.0319 13.5362 15.6959 12.7202 15.0959 12.1202C14.4959 11.5202 13.7039 11.1842 12.8399 11.1842ZM11.1599 11.1842C10.2719 11.1842 9.55193 10.4642 9.55193 9.60023C9.55193 9.16823 9.71993 8.76023 10.0319 8.47223C10.3199 8.18423 10.7279 8.01623 11.1599 8.01623H11.1839V11.2082H11.1599V11.1842ZM12.8399 16.0082H12.8159V12.8162H12.8399C13.2719 12.8162 13.6559 12.9842 13.9679 13.2962C14.2799 13.5842 14.4239 13.9922 14.4239 14.4242C14.4479 15.2882 13.7279 16.0082 12.8399 16.0082Z" fill="#202020"/>
<path d="M12 0.600098C5.71198 0.600098 0.599976 5.7121 0.599976 12.0001C0.599976 18.2881 5.71198 23.4001 12 23.4001C18.288 23.4001 23.4 18.2881 23.4 12.0001C23.4 5.7121 18.288 0.600098 12 0.600098ZM12 21.7921C6.59998 21.7921 2.20798 17.4001 2.20798 12.0001C2.20798 6.6001 6.59998 2.2081 12 2.2081C17.4 2.2081 21.792 6.6001 21.792 12.0001C21.792 17.4001 17.4 21.7921 12 21.7921Z" fill="#202020"/>
</g>
<defs>
<clipPath id="clip0_365_2055">
<rect width="24" height="24" fill="white"/>
</clipPath>
</defs>
</svg>
