<svg width="32" height="32" fill="none" xmlns="http://www.w3.org/2000/svg" className="stroke-current fill-current">
<rect width="32" height="32" rx="8" />
<path d="M6.76923 13.0563L6.96923 13.0563V13.0563C6.96923 8.16737 11.0082 4.2 16 4.2C20.9918 4.2 25.0308 8.16833 25.0308 13.0563V18.4898V18.6897L25.2307 18.6898C26.6501 18.6905 27.8 19.8221 27.8 21.2075C27.8 22.5928 26.6505 23.7245 25.2262 23.7245H20.3538H20.1538H18.3077H18.1077H13.8923H13.6923H11.8462H11.6462H6.7738C5.34846 23.7245 4.2 22.5944 4.2 21.2075C4.2 19.8224 5.34774 18.6906 6.77019 18.6906V18.4906V18.2906C6.89931 18.3378 6.96861 18.4655 6.96948 18.4737L6.97 18.4819L6.97008 18.4844L6.9701 18.4846L6.97003 18.474L6.96989 18.4291L6.96964 18.2569L6.96929 17.6414C6.96911 17.132 6.96905 16.4527 6.96904 15.7734L6.96913 13.9054L6.9692 13.2898L6.96922 13.1173L6.96923 13.0719L6.96923 13.0602L6.96923 13.0573L6.96923 13.0565V13.0564L6.76923 13.0563ZM18.4996 24.1245H19.9487C19.8425 26.1688 18.1186 27.8 16 27.8C13.8814 27.8 12.1575 26.1688 12.0513 24.1245H13.5004C13.6041 25.3949 14.6868 26.3887 16 26.3887C17.3132 26.3887 18.3959 25.3949 18.4996 24.1245ZM25.2298 20.1019C24.3167 20.1019 23.5846 19.3788 23.5846 18.4898V13.0563C23.5846 8.94061 20.1859 5.61132 16 5.61132C11.814 5.61132 8.41538 8.93972 8.41538 13.0563V18.4898C8.41538 19.376 7.68124 20.1019 6.77019 20.1019C6.1539 20.1019 5.64615 20.5945 5.64615 21.2075C5.64615 21.8223 6.15457 22.3132 6.7738 22.3132H25.2262C25.8443 22.3132 26.3538 21.8208 26.3538 21.2075C26.3538 20.5948 25.8446 20.1019 25.2298 20.1019Z" fill="white" stroke-width="0.4"/>
</svg>
