<svg width="32" height="32" viewBox="0 0 32 32" fill="none" xmlns="http://www.w3.org/2000/svg">
<rect width="32" height="32" rx="8" fill="#5E7497"/>
<path fill-rule="evenodd" clip-rule="evenodd" d="M10.8572 9.58981C10.8572 7.20501 13.2023 5.33339 16 5.33339C18.7978 5.33339 21.1429 7.20501 21.1429 9.58981V11.9324H22.8572V9.58981C22.8572 6.53673 19.8298 4.00006 16 4.00006C12.1703 4.00006 9.1429 6.53673 9.1429 9.58981V12.0001H8.28576C5.91883 12.0001 4.00005 13.4925 4.00005 15.3334V24.6667C4.00005 26.5077 5.91883 28.0001 8.28576 28.0001H23.7143C26.0812 28.0001 28 26.5077 28 24.6667V15.3334C28 13.4925 26.0812 12.0001 23.7143 12.0001H10.8572V9.58981ZM10 13.3334H8.28576C6.86559 13.3334 5.71433 14.2289 5.71433 15.3334V24.6667C5.71433 25.7713 6.86559 26.6667 8.28576 26.6667H23.7143C25.1344 26.6667 26.2858 25.7713 26.2858 24.6667V15.3334C26.2858 14.2289 25.1344 13.3334 23.7143 13.3334H10ZM16 17.3025C16.4734 17.3025 16.8572 17.601 16.8572 17.9691V22.4589C16.8572 22.827 16.4734 23.1255 16 23.1255C15.5267 23.1255 15.1429 22.827 15.1429 22.4589V17.9691C15.1429 17.601 15.5267 17.3025 16 17.3025Z" fill="white" stroke="white" stroke-width="0.25"/>
</svg>
