<svg width="24" height="24" viewBox="0 0 24 24" fill="none" xmlns="http://www.w3.org/2000/svg">
<g opacity="0.7">
<path d="M0.9 12C0.9 18.1206 5.87937 23.1 12 23.1C18.1206 23.1 23.1 18.1206 23.1 12C23.1 5.87937 18.1206 0.9 12 0.9C5.87937 0.9 0.9 5.87937 0.9 12ZM2.2 12C2.2 6.59637 6.59637 2.2 12 2.2C17.4036 2.2 21.8 6.59637 21.8 12C21.8 17.4036 17.4036 21.8 12 21.8C6.59637 21.8 2.2 17.4036 2.2 12Z" fill="#202020" stroke="#202020" stroke-width="0.2"/>
<path d="M7.07994 17.954C6.92728 17.954 6.77444 17.8958 6.65796 17.7793C6.4248 17.5461 6.42477 17.1685 6.65798 16.9355L16.9357 6.6576C17.1689 6.42444 17.5465 6.4244 17.7795 6.65758C17.7795 6.65759 17.7795 6.6576 17.7795 6.65762L17.7441 6.69295C17.9578 6.90638 17.9578 7.25255 17.7441 7.46598L7.07994 17.954ZM7.07994 17.954C7.23259 17.954 7.38545 17.8958 7.50173 17.7792L7.07994 17.954Z" fill="#202020" stroke="#202020" stroke-width="0.1"/>
<path d="M9.29656 9.29661C8.80437 9.78858 8.00376 9.78878 7.51159 9.29662L9.29656 9.29661ZM9.29656 9.29661C9.29656 9.29661 9.29656 9.2966 9.29657 9.2966M9.29656 9.29661L9.29657 9.2966M9.29657 9.2966C9.78851 8.80464 9.78852 8.00379 9.29656 7.51161L9.29657 9.2966ZM6.66807 6.66808L6.66807 6.66808C5.71064 7.62552 5.71064 9.18313 6.66807 10.1406C7.1467 10.6192 7.77561 10.8585 8.40429 10.8585C9.03298 10.8585 9.66166 10.6192 10.1407 10.1406L10.1407 10.1406C11.0982 9.18335 11.0982 7.62553 10.1407 6.66809C9.18351 5.71063 7.62572 5.71065 6.66807 6.66808ZM7.51158 9.29661C7.01985 8.80465 7.01984 8.0038 7.5118 7.51161L7.51158 9.29661ZM7.51181 7.5116C8.00376 7.01964 8.80459 7.01964 9.29655 7.5116H7.51181Z" fill="#202020" stroke="#202020" stroke-width="0.1"/>
<path d="M13.8597 17.3317C13.3959 16.8681 13.1402 16.2512 13.1402 15.5956C13.1402 14.9399 13.3959 14.323 13.8597 13.8594C13.8597 13.8594 13.8597 13.8594 13.8597 13.8594M13.8597 17.3317L13.8597 13.8594M13.8597 17.3317C14.3383 17.8105 14.9672 18.0498 15.5957 18.0498C16.2246 18.0498 16.8533 17.8105 17.3319 17.3319C18.2893 16.3744 18.2893 14.8168 17.3319 13.8594C16.8683 13.3956 16.2516 13.1399 15.5959 13.1399C14.9402 13.1399 14.3233 13.3956 13.8597 13.8594M13.8597 17.3317L13.8597 13.8594M16.4882 14.7031L16.4882 14.7031C16.9801 15.1951 16.9801 15.9957 16.4882 16.4879C15.996 16.9803 15.1954 16.9799 14.7034 16.4879C14.4648 16.2493 14.3336 15.9327 14.3336 15.5956C14.3336 15.2586 14.4648 14.9417 14.7034 14.7031C14.942 14.4645 15.2586 14.3333 15.5959 14.3333C15.933 14.3333 16.2498 14.4645 16.4882 14.7031Z" fill="#202020" stroke="#202020" stroke-width="0.1"/>
</g>
</svg>
