<svg width="32" height="32" viewBox="0 0 32 32" fill="none" xmlns="http://www.w3.org/2000/svg">
<rect width="32" height="32" rx="8" fill="#244D4D"/>
<path d="M26.9987 28C26.4456 28 25.9974 27.6135 25.9974 27.1366C25.9974 23.135 23.0464 19.8797 19.4198 19.8797H12.5796C8.95306 19.8797 6.00256 23.135 6.00256 27.1366C6.00256 27.613 5.55439 28 5.00128 28C4.44875 28 4 27.6135 4 27.1366C4 22.1832 7.84858 18.153 12.5796 18.153H19.4204C24.1508 18.153 28 22.1832 28 27.1366C27.9994 27.613 27.5513 28 26.9987 28Z" fill="white"/>
<path d="M15.9996 16.7058C11.9365 16.7058 8.63177 13.8559 8.63177 10.3526C8.63177 6.84984 11.9371 3.99994 15.9996 3.99994C20.0621 3.99994 23.3675 6.84984 23.3675 10.3526C23.3675 13.8559 20.0627 16.7058 15.9996 16.7058ZM15.9996 5.72608C13.0404 5.72608 10.6338 7.80165 10.6338 10.3521C10.6338 12.9036 13.0404 14.9786 15.9996 14.9786C18.9582 14.9786 21.3655 12.9031 21.3655 10.3521C21.3655 7.80165 18.9582 5.72608 15.9996 5.72608Z" fill="white"/>
</svg>
