<svg width="32" height="32" fill="none" xmlns="http://www.w3.org/2000/svg" className="stroke-current fill-current">
<rect width="32" height="32" rx="8" />
<path d="M28.5925 5.39315L28.5925 5.39318L28.5943 5.39494C28.5999 5.40038 28.6053 5.40465 28.6099 5.40789C28.6128 5.41266 28.6168 5.41851 28.622 5.42464L28.6219 5.42466L28.6237 5.42662C28.7937 5.61679 28.9 5.87341 28.9 6.15789V25.8421C28.9 26.1364 28.7877 26.4019 28.6081 26.5933L28.6064 26.5952C28.6036 26.5983 28.6012 26.6013 28.5992 26.6042C28.5976 26.6051 28.5961 26.6061 28.5945 26.6071C28.5887 26.6109 28.5811 26.6163 28.5731 26.6236L28.5731 26.6236L28.5714 26.6252C28.3955 26.7956 28.1672 26.9 27.9167 26.9H4.08333C3.82286 26.9 3.58562 26.7889 3.40787 26.6072L3.40614 26.6054C3.40046 26.5999 3.39496 26.5956 3.39034 26.5923C3.38741 26.5876 3.38344 26.5817 3.37823 26.5756L3.37825 26.5756L3.37663 26.5738C3.20645 26.3836 3.1 26.1268 3.1 25.8421V6.15789C3.1 5.87304 3.20658 5.61603 3.37693 5.42584L3.37695 5.42586L3.37839 5.42417C3.38362 5.41807 3.3876 5.41224 3.39054 5.40747C3.39525 5.40416 3.40085 5.39978 3.40664 5.39414L3.40666 5.39416L3.4083 5.39248C3.58602 5.21102 3.82309 5.1 4.08333 5.1H27.9167C28.1773 5.1 28.4147 5.21128 28.5925 5.39315ZM4.15639 6.90902L3.98333 6.72389V6.9773V25.0234V25.2767L4.15636 25.0918L12.5946 16.0727L12.6585 16.0044L12.5946 15.9361L4.15639 6.90902ZM18.3873 15.6614L18.3885 15.6602L27.223 6.22625L27.3807 6.05789H27.15H4.84859H4.61823L4.77554 6.22618L15.9161 18.1444L15.9891 18.2224L16.0621 18.1444L18.3781 15.6714L18.3781 15.6714L18.3793 15.67C18.3807 15.6685 18.382 15.6669 18.3832 15.6654C18.3846 15.6642 18.3859 15.6629 18.3873 15.6614ZM18.3968 15.644C18.397 15.6436 18.3969 15.6438 18.3966 15.6444L18.3968 15.644ZM18.362 15.6808L18.3626 15.6805L18.362 15.6808ZM13.3603 16.7552L13.2872 16.677L13.2142 16.7551L4.77626 25.7738L4.61878 25.9421H4.84928H27.1291H27.3596L27.2021 25.7738L18.7662 16.757L18.6932 16.679L18.6202 16.757L16.4888 19.033L16.4887 19.0331C16.3498 19.1816 16.1689 19.2547 15.9892 19.2547C15.8094 19.2547 15.6285 19.1816 15.4896 19.0331C15.4896 19.0331 15.4896 19.0331 15.4896 19.0331L13.3603 16.7552ZM19.3864 15.9387L19.3225 16.007L19.3864 16.0754L27.8444 25.1157L28.0174 25.3007L28.0174 25.0474L28.0167 6.97578L28.0167 6.72271L27.8437 6.90743L19.3864 15.9387Z" fill="white" stroke="#5E7497" stroke-width="0.2"/>
</svg>
