<svg width="32" height="32" fill="none" xmlns="http://www.w3.org/2000/svg" className="stroke-current fill-current">
  <rect width="32" height="32" rx="8" />
  <path d="M15.143 4a2.57 2.57 0 0 0-2.557 2.305 9.647 9.647 0 0 0-1.014.417l-.264-.261a2.563 2.563 0 0 0-3.632 0L6.461 7.676a2.565 2.565 0 0 0 0 3.633l.263.266a8.75 8.75 0 0 0-.417 1.005A2.58 2.58 0 0 0 4 15.143v1.714c0 1.222.887 2.402 2.304 2.556.124.344.217.588.418 1.015l-.261.264a2.559 2.559 0 0 0 0 3.632l1.215 1.215a2.566 2.566 0 0 0 3.631 0l.265-.263a8.39 8.39 0 0 0 1.011.419A2.566 2.566 0 0 0 15.143 28h1.714c1.229 0 2.39-.878 2.56-2.305a8.36 8.36 0 0 0 1.011-.419l.264.263a2.566 2.566 0 0 0 3.632 0l1.215-1.215a2.559 2.559 0 0 0 0-3.632l-.261-.264c.201-.427.294-.671.418-1.015A2.563 2.563 0 0 0 28 16.857v-1.714a2.58 2.58 0 0 0-2.307-2.563 8.75 8.75 0 0 0-.417-1.005l.263-.266a2.565 2.565 0 0 0 0-3.633l-1.215-1.215a2.563 2.563 0 0 0-3.632 0l-.264.261a9.648 9.648 0 0 0-1.015-.417A2.568 2.568 0 0 0 16.857 4h-1.714Zm1.714 1.716c.47 0 .857.364.857.854v.366a.857.857 0 0 0 .628.829c.64.18 1.257.43 1.838.753a.857.857 0 0 0 1.018-.139l.703-.703a.853.853 0 0 1 1.214 0l1.209 1.209a.854.854 0 0 1 0 1.215l-.702.702a.857.857 0 0 0-.145 1.031c.325.58.584 1.188.768 1.826a.857.857 0 0 0 .822.627h.362c.49 0 .857.394.857.857v1.714c0 .47-.378.857-.854.857h-.368a.857.857 0 0 0-.83.628 8.527 8.527 0 0 1-.752 1.838.857.857 0 0 0 .14 1.018l.702.703a.852.852 0 0 1 0 1.214l-1.21 1.209a.85.85 0 0 1-1.213 0l-.703-.702a.862.862 0 0 0-1.028-.145 8.599 8.599 0 0 1-1.835.771.857.857 0 0 0-.62.822v.362c0 .46-.368.854-.858.854h-1.714a.853.853 0 0 1-.857-.854v-.362a.857.857 0 0 0-.621-.822 8.597 8.597 0 0 1-1.835-.771.862.862 0 0 0-1.028.145l-.703.702a.85.85 0 0 1-1.214 0l-1.209-1.21a.852.852 0 0 1 0-1.213l.702-.703a.857.857 0 0 0 .14-1.018 8.558 8.558 0 0 1-.753-1.838.857.857 0 0 0-.829-.628h-.368a.855.855 0 0 1-.854-.857v-1.714c0-.463.368-.857.857-.857h.362a.857.857 0 0 0 .822-.627 8.514 8.514 0 0 1 .768-1.826.857.857 0 0 0-.145-1.031l-.702-.702a.854.854 0 0 1 0-1.215l1.209-1.209a.853.853 0 0 1 1.214 0l.703.703a.857.857 0 0 0 1.018.14 8.56 8.56 0 0 1 1.838-.754.857.857 0 0 0 .628-.829V6.57c0-.49.387-.854.857-.854h1.714ZM16 10.859a5.142 5.142 0 1 0 0 10.284 5.142 5.142 0 1 0 0-10.284Zm0 1.712a3.428 3.428 0 1 1 0 6.857 3.427 3.427 0 1 1 0-6.857Z" fill="#fff"/>
</svg>