<svg width="20" height="16" viewBox="0 0 20 16" fill="none" xmlns="http://www.w3.org/2000/svg">
<path d="M19.1139 8.71443H2.53139V1.79752C2.53139 1.21026 3.15772 0.73192 3.93392 0.718019C3.92861 0.749629 3.92304 0.781239 3.92405 0.813801C3.92886 0.982515 4.01949 1.1419 4.17949 1.26206L4.33722 1.38069C3.87595 1.96376 3.93949 2.69727 4.5562 3.16133L4.64557 3.22855L4.2876 3.49781L4.82456 3.90169L5.18253 3.63225L5.18279 3.63244L8.76304 0.93948L8.76278 0.93929L9.12076 0.670032L8.5838 0.266146L8.22582 0.535403L8.13671 0.468375C7.8 0.215113 7.34076 0.0755328 6.84405 0.0755328C6.47013 0.0755328 6.09848 0.157414 5.77013 0.30404L5.61165 0.184835C5.30253 -0.0480514 4.78177 -0.0604289 4.45772 0.145228H3.96861C2.75747 0.145228 1.7719 0.886352 1.7719 1.79733V8.71424H0.885823C0.397215 8.71424 0 9.01321 0 9.38072C0 9.74824 0.397215 10.0472 0.885823 10.0472H1.77215V10.9599C1.77215 12.6489 3.08582 14.1093 4.97924 14.7862C4.85089 15.161 4.40228 15.4287 3.88253 15.4287C3.77848 15.4287 3.67468 15.4179 3.57392 15.3966L3.36785 15.9463C3.5357 15.9821 3.70886 16 3.88253 16C4.71797 16 5.44785 15.5866 5.69165 14.9976C6.21595 15.1216 6.77342 15.1886 7.35139 15.1886H12.6484C13.2109 15.1886 13.7539 15.1246 14.2666 15.0066C14.5142 15.5906 15.2405 16 16.0716 16C16.2456 16 16.4185 15.9819 16.5863 15.9463L16.3803 15.3966C16.2797 15.4179 16.1757 15.4287 16.0716 15.4287C15.5585 15.4287 15.1149 15.1675 14.98 14.8001C16.8949 14.1297 18.2276 12.6609 18.2276 10.9599V10.0472H19.1139C19.6025 10.0472 20 9.74824 20 9.38072C20 9.01321 19.6023 8.71443 19.1139 8.71443ZM7.59949 0.872261L7.68861 0.93929L5.18253 2.82428L5.09316 2.75744C4.64886 2.42325 4.70278 1.83904 5.21316 1.45514L5.8681 0.962331C6.13468 0.761816 6.49038 0.646991 6.8438 0.646991C7.13798 0.646991 7.40633 0.727159 7.59949 0.872261ZM4.70304 0.761816L4.94608 0.578629C4.96203 0.566633 4.98304 0.563967 4.99772 0.563967C5.01392 0.563967 5.04532 0.567394 5.07443 0.588912L5.18253 0.670223L4.82481 0.93948L4.71646 0.85817C4.68861 0.837223 4.6838 0.813992 4.68329 0.801995C4.68304 0.79076 4.68608 0.774384 4.70304 0.761816ZM17.4681 10.9601C17.4681 12.9769 15.3061 14.6175 12.6484 14.6175H7.35139C4.69367 14.6175 2.53165 12.9769 2.53165 10.9601V10.0474H17.4681V10.9601ZM19.1139 9.47612H0.885823C0.817215 9.47612 0.759493 9.43252 0.759493 9.38091C0.759493 9.32931 0.817468 9.2857 0.885823 9.2857H19.1139C19.1825 9.2857 19.2405 9.32931 19.2405 9.38091C19.2405 9.43252 19.1825 9.47612 19.1139 9.47612Z" fill="#202020"/>
</svg>
