<svg width="22" height="16" viewBox="0 0 22 16" fill="none" xmlns="http://www.w3.org/2000/svg">
<path d="M4.01565 0C3.04091 0 2.25003 0.756096 2.25003 1.67577V6.58545H1.78909C0.812965 6.58545 4.34452e-05 7.32449 4.34452e-05 8.23919V15.5229C-0.00370654 15.7714 0.235868 16 0.500041 16C0.764215 16 1.00376 15.7714 1.00004 15.5229V13.8765H21V15.5229C20.9962 15.7714 21.2358 16 21.5 16C21.7641 16 22.0037 15.7714 22 15.5229V8.23919C22 7.32449 21.187 6.58545 20.2109 6.58545H19.75V1.67577C19.75 0.756099 18.9591 0 17.9843 0H4.01565ZM4.01565 0.940774H17.9843C18.4135 0.940774 18.75 1.25278 18.75 1.67577V6.58545H16.8906C16.9592 6.39211 17 6.17847 17 5.96075V4.37318C17 3.98339 16.8877 3.62577 16.6719 3.33683C16.4561 3.04791 16.1033 2.81501 15.6875 2.81501H13.3125C12.8967 2.81501 12.5439 3.04791 12.3281 3.33683C12.1123 3.62577 12 3.98339 12 4.37318V5.96075C12 6.17847 12.0408 6.39211 12.1094 6.58545H9.89063C9.9592 6.39211 10 6.17847 10 5.96075V4.37318C10 3.98339 9.88768 3.62577 9.67188 3.33683C9.45608 3.04791 9.10333 2.81501 8.68751 2.81501H6.31252C5.8967 2.81501 5.54395 3.04791 5.32815 3.33683C5.11235 3.62577 5.00002 3.98339 5.00002 4.37318V5.96075C5.00002 6.17847 5.04082 6.39211 5.1094 6.58545H3.25003V1.67577C3.25003 1.25278 3.5865 0.940774 4.01565 0.940774ZM6.31252 3.75579H8.68751C8.72141 3.75579 8.77393 3.76944 8.85156 3.87339C8.92923 3.97734 9.00001 4.1608 9.00001 4.37318V5.96075C9.00001 6.1731 8.92923 6.35653 8.85156 6.46054C8.77393 6.56449 8.72141 6.57814 8.68751 6.57814H6.31252C6.27862 6.57814 6.22609 6.56449 6.14847 6.46054C6.07079 6.35653 6.00002 6.1731 6.00002 5.96075V4.37318C6.00002 4.1608 6.07079 3.97734 6.14847 3.87339C6.22609 3.76939 6.27862 3.75579 6.31252 3.75579ZM13.3125 3.75579H15.6875C15.7214 3.75579 15.7739 3.76944 15.8515 3.87339C15.9292 3.97734 16 4.1608 16 4.37318V5.96075C16 6.1731 15.9292 6.35653 15.8515 6.46054C15.7739 6.56449 15.7214 6.57814 15.6875 6.57814H13.3125C13.2786 6.57814 13.2261 6.56449 13.1484 6.46054C13.0708 6.35653 13 6.1731 13 5.96075V4.37318C13 4.1608 13.0708 3.97734 13.1484 3.87339C13.2261 3.76939 13.2786 3.75579 13.3125 3.75579ZM1.78909 7.52627C8.49529 7.53497 14.2871 7.52627 20.2109 7.52627C20.6625 7.52627 21 7.84107 21 8.23919V9.87822L1.00004 9.93701V8.23919C1.00004 7.84107 1.33754 7.52627 1.78909 7.52627ZM21 10.819V12.9357H1.00004V10.8778L21 10.819Z" fill="#202020"/>
</svg>
