<svg width="28" height="14" viewBox="0 0 28 14" fill="none" xmlns="http://www.w3.org/2000/svg">
<path d="M0.191895 6.51942C0.225487 6.46293 0.267752 6.40927 0.317913 6.35943L7.31895 0.35997C7.4506 0.247098 7.61546 0.156325 7.8018 0.0941095C7.98815 0.0318947 8.1914 -0.000236511 8.39711 1.90735e-06C8.72427 -0.000453949 9.04132 0.0809135 9.29324 0.229981C9.43502 0.313923 9.55222 0.417015 9.63813 0.533352C9.72403 0.649689 9.77696 0.776983 9.79387 0.907948C9.81077 1.03891 9.79133 1.17097 9.73666 1.29657C9.68199 1.42216 9.59317 1.53882 9.47527 1.63985L4.39252 5.99946H26.5998C26.9712 5.99946 27.3273 6.10481 27.5899 6.29233C27.8525 6.47985 28 6.73418 28 6.99937C28 7.26457 27.8525 7.5189 27.5899 7.70642C27.3273 7.89394 26.9712 7.99929 26.5998 7.99929H4.39252L9.47527 12.3589C9.59295 12.46 9.68159 12.5767 9.73613 12.7022C9.79067 12.8278 9.81004 12.9598 9.79314 13.0908C9.759 13.3552 9.57918 13.599 9.29324 13.7688C9.00729 13.9385 8.63865 14.0201 8.26839 13.9958C7.89814 13.9714 7.55662 13.843 7.31895 13.6388L0.317913 7.63932C0.267752 7.58948 0.225487 7.53582 0.191895 7.47933C0.156181 7.44064 0.123461 7.40059 0.0938797 7.35934C-0.0312939 7.12769 -0.0312939 6.87106 0.0938797 6.63941C0.123461 6.59816 0.156181 6.55811 0.191895 6.51942Z" fill="#202020"/>
</svg>
