<svg width="28" height="14" viewBox="0 0 28 14" fill="none" xmlns="http://www.w3.org/2000/svg">
<path d="M27.8081 7.48058C27.7745 7.53707 27.7322 7.59073 27.6821 7.64057L20.6811 13.64C20.5494 13.7529 20.3845 13.8437 20.1982 13.9059C20.0119 13.9681 19.8086 14.0002 19.6029 14C19.2757 14.0005 18.9587 13.9191 18.7068 13.77C18.565 13.6861 18.4478 13.583 18.3619 13.4666C18.276 13.3503 18.223 13.223 18.2061 13.0921C18.1892 12.9611 18.2087 12.829 18.2633 12.7034C18.318 12.5778 18.4068 12.4612 18.5247 12.3601L23.6075 8.00054H1.40021C1.02885 8.00054 0.672701 7.89519 0.410111 7.70767C0.147522 7.52015 0 7.26582 0 7.00063C0 6.73543 0.147522 6.4811 0.410111 6.29358C0.672701 6.10606 1.02885 6.00071 1.40021 6.00071H23.6075L18.5247 1.64111C18.4071 1.54 18.3184 1.42333 18.2639 1.29775C18.2093 1.17218 18.19 1.04017 18.2069 0.909247C18.241 0.644844 18.4208 0.400954 18.7068 0.231231C18.9927 0.0615077 19.3614 -0.0201464 19.7316 0.00423114C20.1019 0.0286087 20.4434 0.157021 20.6811 0.36122L27.6821 6.36068C27.7322 6.41052 27.7745 6.46418 27.8081 6.52067C27.8438 6.55936 27.8765 6.59941 27.9061 6.64066C28.0313 6.87231 28.0313 7.12894 27.9061 7.36059C27.8765 7.40184 27.8438 7.44189 27.8081 7.48058Z" fill="#202020"/>
</svg>
